<svg xmlns="http://www.w3.org/2000/svg" width="400" height="300" viewBox="0 0 400 300">
  <defs>
    <filter id="glow" x="-20%" y="-20%" width="140%" height="140%">
      <feGaussianBlur stdDeviation="5" result="blur" />
      <feComposite in="SourceGraphic" in2="blur" operator="over" />
    </filter>
    <filter id="soft-glow" x="-10%" y="-10%" width="120%" height="120%">
      <feGaussianBlur stdDeviation="2" result="blur" />
      <feComposite in="SourceGraphic" in2="blur" operator="over" />
    </filter>
    <linearGradient id="quantum-gradient" x1="0%" y1="0%" x2="100%" y2="100%">
      <stop offset="0%" stop-color="#00b8ff" />
      <stop offset="50%" stop-color="#7000ff" />
      <stop offset="100%" stop-color="#00b8ff" />
    </linearGradient>
    <linearGradient id="liquid-gradient" x1="0%" y1="0%" x2="0%" y2="100%">
      <stop offset="0%" stop-color="#00b8ff" stop-opacity="0.9" />
      <stop offset="100%" stop-color="#00b8ff" stop-opacity="0.6" />
    </linearGradient>
  </defs>
  
  <!-- Background -->
  <rect width="400" height="300" fill="#080808" />
  
  <!-- Futuristic Grid Background -->
  <g opacity="0.2">
    <!-- Horizontal Lines -->
    <line x1="0" y1="25" x2="400" y2="25" stroke="#00b8ff" stroke-width="0.5" />
    <line x1="0" y1="50" x2="400" y2="50" stroke="#00b8ff" stroke-width="0.5" />
    <line x1="0" y1="75" x2="400" y2="75" stroke="#00b8ff" stroke-width="0.5" />
    <line x1="0" y1="100" x2="400" y2="100" stroke="#00b8ff" stroke-width="0.5" />
    <line x1="0" y1="125" x2="400" y2="125" stroke="#00b8ff" stroke-width="0.5" />
    <line x1="0" y1="150" x2="400" y2="150" stroke="#00b8ff" stroke-width="0.5" />
    <line x1="0" y1="175" x2="400" y2="175" stroke="#00b8ff" stroke-width="0.5" />
    <line x1="0" y1="200" x2="400" y2="200" stroke="#00b8ff" stroke-width="0.5" />
    <line x1="0" y1="225" x2="400" y2="225" stroke="#00b8ff" stroke-width="0.5" />
    <line x1="0" y1="250" x2="400" y2="250" stroke="#00b8ff" stroke-width="0.5" />
    <line x1="0" y1="275" x2="400" y2="275" stroke="#00b8ff" stroke-width="0.5" />
    
    <!-- Vertical Lines -->
    <line x1="25" y1="0" x2="25" y2="300" stroke="#00b8ff" stroke-width="0.5" />
    <line x1="50" y1="0" x2="50" y2="300" stroke="#00b8ff" stroke-width="0.5" />
    <line x1="75" y1="0" x2="75" y2="300" stroke="#00b8ff" stroke-width="0.5" />
    <line x1="100" y1="0" x2="100" y2="300" stroke="#00b8ff" stroke-width="0.5" />
    <line x1="125" y1="0" x2="125" y2="300" stroke="#00b8ff" stroke-width="0.5" />
    <line x1="150" y1="0" x2="150" y2="300" stroke="#00b8ff" stroke-width="0.5" />
    <line x1="175" y1="0" x2="175" y2="300" stroke="#00b8ff" stroke-width="0.5" />
    <line x1="200" y1="0" x2="200" y2="300" stroke="#00b8ff" stroke-width="0.5" />
    <line x1="225" y1="0" x2="225" y2="300" stroke="#00b8ff" stroke-width="0.5" />
    <line x1="250" y1="0" x2="250" y2="300" stroke="#00b8ff" stroke-width="0.5" />
    <line x1="275" y1="0" x2="275" y2="300" stroke="#00b8ff" stroke-width="0.5" />
    <line x1="300" y1="0" x2="300" y2="300" stroke="#00b8ff" stroke-width="0.5" />
    <line x1="325" y1="0" x2="325" y2="300" stroke="#00b8ff" stroke-width="0.5" />
    <line x1="350" y1="0" x2="350" y2="300" stroke="#00b8ff" stroke-width="0.5" />
    <line x1="375" y1="0" x2="375" y2="300" stroke="#00b8ff" stroke-width="0.5" />
  </g>
  
  <!-- Quantum Enhancement Laboratory Scene -->
  <g>
    <!-- Laboratory Platform -->
    <rect x="100" y="220" width="200" height="20" rx="10" fill="#00b8ff" opacity="0.3" filter="url(#soft-glow)" />
    <ellipse cx="200" cy="220" rx="100" ry="10" fill="#00b8ff" opacity="0.2" filter="url(#glow)" />
    
    <!-- Quantum Bottle -->
    <g filter="url(#soft-glow)">
      <!-- Bottle Body -->
      <path d="M180,220 C175,200 170,160 175,140 C178,130 182,130 185,130 C188,130 192,130 195,140 C200,160 195,200 190,220" fill="none" stroke="url(#quantum-gradient)" stroke-width="3" opacity="0.8" />
      
      <!-- Bottle Liquid -->
      <path d="M180,200 C177,190 174,160 176,150 C177,145 183,145 185,145 C187,145 193,145 194,150 C196,160 193,190 190,200" fill="url(#liquid-gradient)" opacity="0.5" />
      
      <!-- Bottle Cap -->
      <ellipse cx="185" cy="130" rx="10" ry="3" fill="#00b8ff" opacity="0.8" filter="url(#glow)" />
      
      <!-- Quantum Particles -->
      <g filter="url(#glow)">
        <circle cx="165" cy="170" r="3" fill="#00b8ff" opacity="0.9">
          <animateTransform attributeName="transform" type="rotate" from="0 185 170" to="360 185 170" dur="3s" repeatCount="indefinite" />
        </circle>
        <circle cx="205" cy="170" r="3" fill="#7000ff" opacity="0.9">
          <animateTransform attributeName="transform" type="rotate" from="180 185 170" to="540 185 170" dur="3s" repeatCount="indefinite" />
        </circle>
        <circle cx="185" cy="150" r="4" fill="#00b8ff" opacity="0.9">
          <animateTransform attributeName="transform" type="rotate" from="90 185 170" to="450 185 170" dur="3s" repeatCount="indefinite" />
        </circle>
        <circle cx="185" cy="190" r="4" fill="#7000ff" opacity="0.9">
          <animateTransform attributeName="transform" type="rotate" from="270 185 170" to="630 185 170" dur="3s" repeatCount="indefinite" />
        </circle>
      </g>
    </g>
    
    <!-- Holographic Display -->
    <g transform="translate(260, 160)" filter="url(#soft-glow)">
      <rect x="-40" y="-30" width="80" height="60" rx="5" fill="#080808" opacity="0.7" stroke="#00b8ff" stroke-width="1" />
      
      <!-- Molecular Structure Display -->
      <circle cx="-15" cy="-10" r="5" fill="#00b8ff" opacity="0.7" />
      <circle cx="15" cy="-10" r="5" fill="#00b8ff" opacity="0.7" />
      <circle cx="0" cy="10" r="5" fill="#00b8ff" opacity="0.7" />
      <circle cx="-25" cy="15" r="5" fill="#00b8ff" opacity="0.7" />
      <circle cx="25" cy="15" r="5" fill="#00b8ff" opacity="0.7" />
      
      <line x1="-15" y1="-10" x2="15" y2="-10" stroke="#00b8ff" stroke-width="1" />
      <line x1="-15" y1="-10" x2="0" y2="10" stroke="#00b8ff" stroke-width="1" />
      <line x1="15" y1="-10" x2="0" y2="10" stroke="#00b8ff" stroke-width="1" />
      <line x1="0" y1="10" x2="-25" y2="15" stroke="#00b8ff" stroke-width="1" />
      <line x1="0" y1="10" x2="25" y2="15" stroke="#00b8ff" stroke-width="1" />
    </g>
    
    <!-- Scientist Figure (Futuristic) -->
    <g transform="translate(100, 170)">
      <!-- Head -->
      <circle cx="0" cy="0" r="10" fill="#00b8ff" opacity="0.2" stroke="#00b8ff" stroke-width="1" />
      
      <!-- Body -->
      <path d="M0,10 L0,40 M-15,20 L15,20 M-5,40 L-10,60 M5,40 L10,60" fill="none" stroke="#00b8ff" stroke-width="1" />
      
      <!-- Holographic Visor -->
      <path d="M-8,-2 L8,-2" stroke="#00b8ff" stroke-width="2" opacity="0.8" />
      
      <!-- Holographic Arm Extension -->
      <path d="M15,20 C30,15 40,20 50,30" fill="none" stroke="#00b8ff" stroke-width="1" opacity="0.6" stroke-dasharray="2,1" />
      <circle cx="50" cy="30" r="3" fill="#00b8ff" opacity="0.6" />
    </g>
  </g>
  
  <!-- Quantum Field Lines -->
  <g opacity="0.2" filter="url(#soft-glow)">
    <path d="M0,150 C50,130 100,170 150,150 C200,130 250,170 300,150 C350,130 400,170 450,150" fill="none" stroke="#00b8ff" stroke-width="1" />
    <path d="M0,160 C50,180 100,140 150,160 C200,180 250,140 300,160 C350,180 400,140 450,160" fill="none" stroke="#00b8ff" stroke-width="1" />
    <path d="M0,140 C50,120 100,160 150,140 C200,120 250,160 300,140 C350,120 400,160 450,140" fill="none" stroke="#00b8ff" stroke-width="1" />
  </g>
  
  <!-- Title with Futuristic Touch -->
  <g filter="url(#soft-glow)">
    <text x="200" y="30" font-family="Arial, sans-serif" font-weight="bold" font-size="18" fill="#00b8ff" text-anchor="middle">2025: Quantum Enhancement</text>
    <text x="200" y="270" font-family="Arial, sans-serif" font-size="12" fill="#00b8ff" text-anchor="middle" opacity="0.7">Molecular Enhancement Technology Revolution</text>
  </g>
  
  <!-- Futuristic Timeline Element -->
  <circle cx="30" cy="30" r="15" fill="none" stroke="#00b8ff" stroke-width="2" opacity="0.7" filter="url(#soft-glow)" />
  <text x="30" y="35" font-family="Arial, sans-serif" font-size="12" fill="#00b8ff" text-anchor="middle" filter="url(#soft-glow)">2025</text>
</svg> 