<svg xmlns="http://www.w3.org/2000/svg" width="32" height="32" viewBox="0 0 32 32">
  <defs>
    <linearGradient id="logo-gradient" x1="0%" y1="0%" x2="100%" y2="0%">
      <stop offset="0%" stop-color="#00b8ff" />
      <stop offset="50%" stop-color="#7000ff" />
      <stop offset="100%" stop-color="#00b8ff" />
    </linearGradient>
    <filter id="glow" x="-50%" y="-50%" width="200%" height="200%">
      <feGaussianBlur stdDeviation="1" result="blur" />
      <feComposite in="SourceGraphic" in2="blur" operator="over" />
    </filter>
  </defs>
  <circle cx="16" cy="16" r="15" fill="#080808" />
  <g filter="url(#glow)">
    <path d="M16,4 C9.4,4 4,9.4 4,16 C4,22.6 9.4,28 16,28 C22.6,28 28,22.6 28,16 C28,9.4 22.6,4 16,4 Z" fill="#080808"/>
    <path d="M9,13 Q12,10 15,13 Q18,16 21,13 Q24,10 25,13 L25,19 Q22,22 19,19 Q16,16 13,19 Q10,22 9,19 Z" fill="none" stroke="url(#logo-gradient)" stroke-width="1.5" />
  </g>
</svg> 